# xmcd
#
# Track frame offsets:
#	150
#	12950
#	25722
#	36961
#	50506
#	67478
#	84959
#	99201
#	113498
#	124173
#	140407
#	151514
#	164209
#	179565
#	193493
#	204635
#	216244
#	235292
#	251477
#	269432
#
# Disc length: 3850 seconds
#
# Revision: 0
# Processed by: cddbd v1.5.2PL0 Copyright (c) Steve Scherf et al.
# Submitted via: EasyCDDAExtractor 16.0.1.1
#
DISCID=230f0814
DTITLE=Patty Loveless - Patty Loveless+If My Heart Had Windows
DYEAR=1900
DGENRE=Country
TTITLE0=Lonely Days  Lonely Nights
TTITLE1=I Did
TTITLE2=You Are Everything
TTITLE3=Blues Is Not A Word
TTITLE4=Slow Healing Heart
TTITLE5=After All
TTITLE6=Wicked Ways
TTITLE7=Half Over You
TTITLE8=Some Blue Moons Ago
TTITLE9=Sounds Of Loniliness
TTITLE10=So Good To Be In Love
TTITLE11=Working Many Hands
TTITLE12=You Saved Me
TTITLE13=If My Heart Had Windows
TTITLE14=A Little Bit In Love
TTITLE15=I Can't Get You Off Of My Mind
TTITLE16=Baby's Gone Blues
TTITLE17=A Little On The Lonely Side
TTITLE18=Fly Away
TTITLE19=Once In A Lifetime
EXTD=
EXTT0=
EXTT1=
EXTT2=
EXTT3=
EXTT4=
EXTT5=
EXTT6=
EXTT7=
EXTT8=
EXTT9=
EXTT10=
EXTT11=
EXTT12=
EXTT13=
EXTT14=
EXTT15=
EXTT16=
EXTT17=
EXTT18=
EXTT19=
PLAYORDER=
